<svg xmlns="http://www.w3.org/2000/svg" width="70" height="70" viewBox="-5 -5 65 65">
    <g fill="none" fill-rule="nonzero">
       <path fill="#EBB349" stroke="#EBB349" stroke-width="0%" d="M17.247 12c-.924 0-1.847-.421-2.401-1.264l-2.493-3.96c-.74-1.18-.277-2.78 1.015-3.454 1.293-.674 3.048-.253 3.786.926l2.493 3.96c.74 1.18.277 2.78-1.015 3.455-.37.168-.924.337-1.385.337z">
					<animate attributeName="opacity" dur="1.5s" values="0.5;1;0.5" repeatCount="indefinite" begin="0.125s"></animate>
        <animate attributeName="stroke-width"
                          attributeType="XML"
                          type="scale"
                          values="0;4%;0"
                          dur="1.5s"
                          begin="0.125s"
                          repeatCount="indefinite"/>
        </path> 
        <path fill="#EBB349" stroke="#EBB349" stroke-width="0%" d="M27.5 10C26.083 10 25 8.87 25 7.391V2.61C25 1.13 26.083 0 27.5 0S30 1.13 30 2.609V7.39C30 8.783 28.917 10 27.5 10z">
						<animate attributeName="opacity" dur="1.5s" values="0.5;1;0.5" repeatCount="indefinite" begin="0.25s"></animate>
        <animate attributeName="stroke-width"
                          attributeType="XML"
                          type="scale"
                          values="0;4%;0"
                          dur="1.5s"
                          begin="0.25s"
                          repeatCount="indefinite"/>
        </path> 
        <path fill="#EBB349" stroke="#EBB349" stroke-width="0%" d="M36.753 12c-.461 0-.923-.084-1.385-.337-1.292-.674-1.754-2.275-1.015-3.454l2.493-3.96c.738-1.18 2.493-1.601 3.786-.927 1.292.674 1.754 2.275 1.015 3.454l-2.493 3.96c-.554.758-1.477 1.264-2.4 1.264z">
						<animate attributeName="opacity" dur="1.5s" values="0.5;1;0.5" repeatCount="indefinite" begin="0.375s"></animate>
        <animate attributeName="stroke-width"
                          attributeType="XML"
                          type="scale"
                          values="0;4%;0"
                          dur="1.5s"
                          begin="0.375s"
                          repeatCount="indefinite"/>
        </path> 
        <path fill="#EBB349" stroke="#EBB349" stroke-width="0%" d="M44.517 20c-.844 0-1.688-.46-2.195-1.382-.675-1.29-.253-3.041.929-3.778l3.966-2.488c1.182-.737 2.786-.277 3.46 1.013.676 1.29.254 3.041-.928 3.778l-3.966 2.488a2.23 2.23 0 0 1-1.266.369z">
						<animate attributeName="opacity" dur="1.5s" values="0.5;1;0.5" repeatCount="indefinite" begin="0.5s"></animate>
        <animate attributeName="stroke-width"
                          attributeType="XML"
                          type="scale"
                          values="0;4%;0"
                          dur="1.5s"
                          begin="0.5s"
                          repeatCount="indefinite"/>
        </path> 
        <path fill="#EBB349" stroke="#EBB349" stroke-width="0%" d="M51.391 30H46.61C45.13 30 44 28.917 44 27.5s1.13-2.5 2.609-2.5h4.782C52.87 25 54 26.083 54 27.5S52.87 30 51.391 30z">
						<animate attributeName="opacity" dur="1.5s" values="0.5;1;0.5" repeatCount="indefinite" begin="0.625s"></animate>
        <animate attributeName="stroke-width"
                          attributeType="XML"
                          type="scale"
                          values="0;4%;0"
                          dur="1.5s"
                          begin="0.625s"
                          repeatCount="indefinite"/>
        </path> 
        <path fill="#EBB349" stroke="#EBB349" stroke-width="0%" d="M48.568 42a2.23 2.23 0 0 1-1.266-.369l-4.051-2.488c-1.182-.737-1.604-2.488-.929-3.778s2.279-1.75 3.46-1.013l3.967 2.488c1.182.737 1.604 2.488.929 3.778-.422.921-1.266 1.382-2.11 1.382z">
						<animate attributeName="opacity" dur="1.5s" values="0.5;1;0.5" repeatCount="indefinite" begin="0.75s"></animate>
          <animate attributeName="stroke-width"
                          attributeType="XML"
                          type="scale"
                          values="0;4%;0"
                          dur="1.5s"
                          begin="0.75s"
                          repeatCount="indefinite"/>
        </path> 
        <path fill="#EBB349" stroke="#EBB349" stroke-width="0%" d="M39.247 51c-.924 0-1.847-.421-2.401-1.264l-2.493-3.96c-.74-1.18-.277-2.78 1.015-3.454 1.293-.674 3.048-.253 3.786.926l2.493 3.96c.74 1.18.277 2.78-1.015 3.455a2.801 2.801 0 0 1-1.385.337z">
						<animate attributeName="opacity" dur="1.5s" values="0.5;1;0.5" repeatCount="indefinite" begin="0.875s"></animate>
          <animate attributeName="stroke-width"
                          attributeType="XML"
                          type="scale"
                          values="0;4%;0"
                          dur="1.5s"
                          begin="0.875s"
                          repeatCount="indefinite"/>
        </path> 
        <path fill="#EBB349" stroke="#EBB349" stroke-width="0%" d="M27.5 54c-1.417 0-2.5-1.13-2.5-2.609V46.61C25 45.13 26.083 44 27.5 44s2.5 1.13 2.5 2.609v4.782C30 52.87 28.917 54 27.5 54z">
						<animate attributeName="opacity" dur="1.5s" values="0.5;1;0.5" repeatCount="indefinite" begin="1s"></animate>
          <animate attributeName="stroke-width"
                          attributeType="XML"
                          type="scale"
                          values="0;4%;0"
                          dur="1.5s"
                          begin="1s"
                          repeatCount="indefinite"/>
        </path> 
        <path fill="#EBB349" stroke="#EBB349" stroke-width="0%" d="M14.753 51c-.461 0-.923-.084-1.385-.337-1.292-.674-1.754-2.275-1.015-3.454l2.493-3.96c.738-1.18 2.493-1.601 3.786-.927 1.292.674 1.754 2.275 1.015 3.454l-2.493 3.96C16.6 50.58 15.677 51 14.754 51z">
						<animate attributeName="opacity" dur="1.5s" values="0.5;1;0.5" repeatCount="indefinite" begin="1.125s"></animate>
          <animate attributeName="stroke-width"
                          attributeType="XML"
                          type="scale"
                          values="0;4%;0"
                          dur="1.5s"
                          begin="1.125s"
                          repeatCount="indefinite"/>
        </path> 
        <path fill="#EBB349" stroke="#EBB349" stroke-width="0%" d="M5.517 42c-.844 0-1.688-.46-2.195-1.382-.675-1.29-.253-3.041.929-3.778l3.966-2.488c1.182-.737 2.786-.277 3.46 1.013.676 1.29.254 3.041-.928 3.778l-3.966 2.488c-.338.277-.76.369-1.266.369z">
						<animate attributeName="opacity" dur="1.5s" values="0.5;1;0.5" repeatCount="indefinite" begin="1.25s"></animate>
          <animate attributeName="stroke-width"
                          attributeType="XML"
                          type="scale"
                          values="0;4%;0"
                          dur="1.5s"
                          begin="1.25s"
                          repeatCount="indefinite"/>
        </path> 
        <path fill="#EBB349" stroke="#EBB349" stroke-width="0%" d="M7.391 30H2.61C1.13 30 0 28.917 0 27.5S1.13 25 2.609 25H7.39C8.87 25 10 26.083 10 27.5S8.783 30 7.391 30z">
						<animate attributeName="opacity" dur="1.5s" values="0.5;1;0.5" repeatCount="indefinite" begin="1.375s"></animate>
          <animate attributeName="stroke-width"
                          attributeType="XML"
                          type="scale"
                          values="0;4%;0"
                          dur="1.5s"
                          begin="1.375s"
                          repeatCount="indefinite"/>
        </path> 
        <path fill="#EBB349" stroke="#EBB349" stroke-width="0%" d="M9.483 20a2.23 2.23 0 0 1-1.266-.369l-3.966-2.488c-1.182-.737-1.604-2.488-.929-3.778s2.279-1.75 3.46-1.013l3.967 2.488c1.182.737 1.604 2.488.929 3.778-.507.921-1.35 1.382-2.195 1.382z">
						<animate attributeName="opacity" dur="1.5s" values="0.5;1;0.5" repeatCount="indefinite" begin="1.5s"></animate>
          <animate attributeName="stroke-width"
                          attributeType="XML"
                          type="scale"
                          values="0;4%;0"
                          dur="1.5s"
                          begin="1.5s"
                          repeatCount="indefinite"/>
        </path> 
    </g>
</svg>